# xmcd CD database file
#
# Track frame offsets:
#	150
#	21481
#	41745
#	61277
#	84149
#	97401
#	115120
#	134151
#	155102
#	172514
#	192510
#	208971
#	230241
#	242562
#	259448
#
# Disc length: 3652 seconds
#
# Revision: 1
# Processed by: cddbd v1.5.1PL0 Copyright (c) Steve Scherf et al.
# Submitted via: CDex 1.51
#
DISCID=e20e420f
DTITLE=Connie Evingson - Gypsy in My Soul
DYEAR=2004
DGENRE=Jazz
TTITLE0=Nature Boy
TTITLE1=I'm Confessin'
TTITLE2=Gypsy in My Soul
TTITLE3=Nuages
TTITLE4=Lover Come Back to Me
TTITLE5=Lullaby of the Leaves
TTITLE6=Until
TTITLE7=April in Paris
TTITLE8=Caravan
TTITLE9=The Lonely One
TTITLE10=Night and Day
TTITLE11=You and the Night and the Music
TTITLE12=Django's Premonition
TTITLE13=I Cover the Waterfront
TTITLE14=S'Wonderful/Dizzy Atmosphere
EXTD=YEAR: 2004
EXTT0=
EXTT1=
EXTT2=
EXTT3=
EXTT4=
EXTT5=
EXTT6=
EXTT7=
EXTT8=
EXTT9=
EXTT10=
EXTT11=
EXTT12=
EXTT13=
EXTT14=
PLAYORDER=
